<svg width="1280" height="720" xmlns="http://www.w3.org/2000/svg" xmlns:xlink="http://www.w3.org/1999/xlink" overflow="hidden"><defs><clipPath id="clip0"><rect x="0" y="0" width="1280" height="720"/></clipPath><linearGradient x1="1057.5" y1="462.993" x2="223.499" y2="462.993" gradientUnits="userSpaceOnUse" spreadMethod="reflect" id="fill1"><stop offset="0" stop-color="#FF0000"/><stop offset="0.43" stop-color="#FFFFFF"/><stop offset="1" stop-color="#0070C0"/></linearGradient><linearGradient x1="1057.5" y1="462.993" x2="223.499" y2="462.993" gradientUnits="userSpaceOnUse" spreadMethod="reflect" id="fill2"><stop offset="0" stop-color="#FF6666"/><stop offset="0.43" stop-color="#FFFFFF"/><stop offset="1" stop-color="#66A9D9"/></linearGradient></defs><g clip-path="url(#clip0)"><path d="M492.5 419.5 492.5 335C492.5 288.332 558.762 250.5 640.5 250.5 722.238 250.5 788.5 288.332 788.5 335L788.5 419.5Z" stroke="#000000" stroke-width="1.33333" stroke-miterlimit="8" fill="#E7E6E6" fill-rule="evenodd"/><path d="M573.5 73.25C573.5 82.5007 603.497 89.9999 640.5 89.9999 677.503 89.9999 707.5 82.5007 707.5 73.25L707.5 266.75C707.5 276.001 677.503 283.5 640.5 283.5 603.497 283.5 573.5 276.001 573.5 266.75Z" fill="#E7E6E6" fill-rule="evenodd"/><path d="M573.5 73.25C573.5 63.9993 603.497 56.5001 640.5 56.5001 677.503 56.5001 707.5 63.9993 707.5 73.25 707.5 82.5007 677.503 89.9999 640.5 89.9999 603.497 89.9999 573.5 82.5007 573.5 73.25Z" fill="#F1F0F0" fill-rule="evenodd"/><path d="M707.5 73.25C707.5 82.5007 677.503 89.9999 640.5 89.9999 603.497 89.9999 573.5 82.5007 573.5 73.25 573.5 63.9993 603.497 56.5001 640.5 56.5001 677.503 56.5001 707.5 63.9993 707.5 73.25L707.5 266.75C707.5 276.001 677.503 283.5 640.5 283.5 603.497 283.5 573.5 276.001 573.5 266.75L573.5 73.25" stroke="#000000" stroke-width="1.33333" stroke-miterlimit="8" fill="none" fill-rule="evenodd"/><path d="M1046.63 419.5C1040.62 419.5 1035.75 438.973 1035.75 462.993 1035.75 487.014 1040.62 506.486 1046.63 506.486L234.373 506.486C228.367 506.486 223.499 487.014 223.499 462.993 223.499 438.973 228.367 419.5 234.373 419.5Z" fill="url(#fill1)" fill-rule="evenodd"/><path d="M1046.63 419.5C1052.63 419.5 1057.5 438.973 1057.5 462.993 1057.5 487.014 1052.63 506.486 1046.63 506.486 1040.62 506.486 1035.75 487.014 1035.75 462.993 1035.75 438.973 1040.62 419.5 1046.63 419.5Z" fill="url(#fill2)" fill-rule="evenodd"/><path d="M1046.63 506.486C1040.62 506.486 1035.75 487.014 1035.75 462.993 1035.75 438.973 1040.62 419.5 1046.63 419.5 1052.63 419.5 1057.5 438.973 1057.5 462.993 1057.5 487.014 1052.63 506.486 1046.63 506.486L234.373 506.486C228.367 506.486 223.499 487.014 223.499 462.993 223.499 438.973 228.367 419.5 234.373 419.5L1046.63 419.5" stroke="#000000" stroke-width="1.33333" stroke-miterlimit="8" fill="none" fill-rule="evenodd"/><path d="M879.5 506.5C879.5 583.268 772.496 645.5 640.5 645.5 508.504 645.5 401.5 583.268 401.5 506.5L471 506.5C471 544.884 546.888 576 640.5 576 734.112 576 810 544.884 810 506.5Z" stroke="#000000" stroke-width="1.33333" stroke-miterlimit="8" fill="#0070C0" fill-rule="evenodd"/><path d="M469.988 446.5 503.5 459.666 470.33 473.46C470.391 470.763 470.453 468.066 470.514 465.368L423.699 464.869 424.705 464.982C434.615 467.238 442.07 476.995 442.07 488.69L442.07 514.672 448.284 514.672 435.856 528.5 423.428 514.672 429.642 514.672 429.642 488.69C429.642 482.962 425.469 478.318 420.321 478.318L398.573 478.318 398.573 478.466 362.5 478.466 362.5 452.672 398.573 452.672 398.573 452.623 470.013 452.692C470.005 450.628 469.996 448.564 469.988 446.5Z" stroke="#000000" stroke-width="1.33333" stroke-miterlimit="8" fill="#FFFFFF" fill-rule="evenodd"/><path d="M839.5 451.5 957.5 451.5 957.5 439.5 981.5 463.5 957.5 487.5 957.5 475.5 839.5 475.5Z" stroke="#000000" stroke-width="1.33333" stroke-miterlimit="8" fill="#FFFFFF" fill-rule="evenodd"/><path d="M634.5 433.5 637.5 433.5 637.5 412.5 643.5 412.5 643.5 433.5 646.5 433.5 640.5 439.5Z" stroke="#000000" stroke-width="1.33333" stroke-miterlimit="8" fill-rule="evenodd"/><path d="M567.5 433.5 570.5 433.5 570.5 412.5 576.5 412.5 576.5 433.5 579.5 433.5 573.5 439.5Z" stroke="#000000" stroke-width="1.33333" stroke-miterlimit="8" fill-rule="evenodd"/><path d="M701.5 433.5 704.5 433.5 704.5 412.5 710.5 412.5 710.5 433.5 713.5 433.5 707.5 439.5Z" stroke="#000000" stroke-width="1.33333" stroke-miterlimit="8" fill-rule="evenodd"/></g></svg>