<svg width="1280" height="720" xmlns="http://www.w3.org/2000/svg" xmlns:xlink="http://www.w3.org/1999/xlink" overflow="hidden"><defs><clipPath id="clip0"><rect x="0" y="0" width="1280" height="720"/></clipPath><linearGradient x1="1201.5" y1="462.998" x2="122.5" y2="462.998" gradientUnits="userSpaceOnUse" spreadMethod="reflect" id="fill1"><stop offset="0" stop-color="#FF0000"/><stop offset="0.43" stop-color="#FFFFFF"/><stop offset="1" stop-color="#0070C0"/></linearGradient><linearGradient x1="1201.5" y1="462.998" x2="122.5" y2="462.998" gradientUnits="userSpaceOnUse" spreadMethod="reflect" id="fill2"><stop offset="0" stop-color="#FF6666"/><stop offset="0.43" stop-color="#FFFFFF"/><stop offset="1" stop-color="#66A9D9"/></linearGradient></defs><g clip-path="url(#clip0)"><path d="M492.5 419.5 492.5 335C492.5 288.332 558.762 250.5 640.5 250.5 722.238 250.5 788.5 288.332 788.5 335L788.5 419.5Z" stroke="#000000" stroke-width="1.33333" stroke-miterlimit="8" fill="#E7E6E6" fill-rule="evenodd"/><path d="M573.5 73.25C573.5 82.5007 603.497 89.9999 640.5 89.9999 677.503 89.9999 707.5 82.5007 707.5 73.25L707.5 266.75C707.5 276.001 677.503 283.5 640.5 283.5 603.497 283.5 573.5 276.001 573.5 266.75Z" fill="#E7E6E6" fill-rule="evenodd"/><path d="M573.5 73.25C573.5 63.9993 603.497 56.5001 640.5 56.5001 677.503 56.5001 707.5 63.9993 707.5 73.25 707.5 82.5007 677.503 89.9999 640.5 89.9999 603.497 89.9999 573.5 82.5007 573.5 73.25Z" fill="#F1F0F0" fill-rule="evenodd"/><path d="M707.5 73.25C707.5 82.5007 677.503 89.9999 640.5 89.9999 603.497 89.9999 573.5 82.5007 573.5 73.25 573.5 63.9993 603.497 56.5001 640.5 56.5001 677.503 56.5001 707.5 63.9993 707.5 73.25L707.5 266.75C707.5 276.001 677.503 283.5 640.5 283.5 603.497 283.5 573.5 276.001 573.5 266.75L573.5 73.25" stroke="#000000" stroke-width="1.33333" stroke-miterlimit="8" fill="none" fill-rule="evenodd"/><path d="M1190.62 419.5C1184.62 419.5 1179.75 438.975 1179.75 462.999 1179.75 487.023 1184.62 506.498 1190.62 506.498L133.375 506.497C127.369 506.497 122.5 487.021 122.5 462.998 122.5 438.974 127.369 419.499 133.375 419.499Z" fill="url(#fill1)" fill-rule="evenodd"/><path d="M1190.62 419.5C1196.63 419.5 1201.5 438.975 1201.5 462.999 1201.5 487.023 1196.63 506.498 1190.62 506.498 1184.62 506.498 1179.75 487.023 1179.75 462.999 1179.75 438.975 1184.62 419.5 1190.62 419.5Z" fill="url(#fill2)" fill-rule="evenodd"/><path d="M1190.62 506.497C1184.62 506.497 1179.75 487.021 1179.75 462.998 1179.75 438.974 1184.62 419.499 1190.62 419.499 1196.63 419.499 1201.5 438.974 1201.5 462.998 1201.5 487.021 1196.63 506.497 1190.62 506.497L133.375 506.497C127.369 506.497 122.5 487.021 122.5 462.998 122.5 438.974 127.369 419.499 133.375 419.499L1190.62 419.5" stroke="#000000" stroke-width="1.33333" stroke-miterlimit="8" fill="none" fill-rule="evenodd"/><path d="M879.5 506.5C879.5 583.268 772.496 645.5 640.5 645.5 508.504 645.5 401.5 583.268 401.5 506.5L471 506.5C471 544.884 546.888 576 640.5 576 734.112 576 810 544.884 810 506.5Z" stroke="#000000" stroke-width="1.33333" stroke-miterlimit="8" fill="#0070C0" fill-rule="evenodd"/><path d="M469.988 446.5 503.5 459.666 470.33 473.46C470.391 470.763 470.453 468.066 470.514 465.368L423.699 464.869 424.705 464.982C434.615 467.238 442.07 476.995 442.07 488.69L442.07 514.672 448.284 514.672 435.856 528.5 423.428 514.672 429.642 514.672 429.642 488.69C429.642 482.962 425.469 478.318 420.321 478.318L398.573 478.318 398.573 478.466 362.5 478.466 362.5 452.672 398.573 452.672 398.573 452.623 470.013 452.692C470.005 450.628 469.996 448.564 469.988 446.5Z" stroke="#000000" stroke-width="1.33333" stroke-miterlimit="8" fill="#FFFFFF" fill-rule="evenodd"/><path d="M634.5 433.5 637.5 433.5 637.5 412.5 643.5 412.5 643.5 433.5 646.5 433.5 640.5 439.5Z" stroke="#000000" stroke-width="1.33333" stroke-miterlimit="8" fill-rule="evenodd"/><path d="M567.5 433.5 570.5 433.5 570.5 412.5 576.5 412.5 576.5 433.5 579.5 433.5 573.5 439.5Z" stroke="#000000" stroke-width="1.33333" stroke-miterlimit="8" fill-rule="evenodd"/><path d="M701.5 433.5 704.5 433.5 704.5 412.5 710.5 412.5 710.5 433.5 713.5 433.5 707.5 439.5Z" stroke="#000000" stroke-width="1.33333" stroke-miterlimit="8" fill-rule="evenodd"/><path d="M187.401 507.45C185.407 514.879 184.03 522.502 169.474 522.5 154.918 522.498 142.555 491.587 142.5 464.417 142.445 437.247 155.066 405.509 168.158 405.5 181.25 405.491 184.019 412.389 187.5 419.344" stroke="#000000" stroke-width="1.33333" stroke-miterlimit="8" fill="#7F7F7F" fill-rule="evenodd" fill-opacity="0.54902"/><path d="M0 0 0.305302 90.4601" stroke="#000000" stroke-width="0.666667" stroke-miterlimit="8" fill="none" fill-rule="evenodd" transform="matrix(-1 0 0 1 169.805 522.5)"/><path d="M103.5 621.167C103.5 616.933 106.933 613.5 111.167 613.5L226.833 613.5C231.067 613.5 234.5 616.933 234.5 621.167L234.5 651.833C234.5 656.068 231.067 659.5 226.833 659.5L111.167 659.5C106.933 659.5 103.5 656.068 103.5 651.833Z" stroke="#000000" stroke-width="1.33333" stroke-miterlimit="8" fill="#FFFFFF" fill-rule="evenodd"/><text font-family="Calibri,Calibri_MSFontService,sans-serif" font-weight="400" font-size="24" transform="translate(114.759 644)">Qt<tspan font-size="24" x="29.6667" y="0">=</tspan><tspan font-family="Cambria Math,Cambria Math_MSFontService,sans-serif" font-size="24" x="57.7257" y="-172">𝐶𝑣</tspan><tspan font-family="Cambria Math,Cambria Math_MSFontService,sans-serif" font-size="18" x="84.8257" y="-167">𝑂2</tspan><tspan font-size="24" x="108.152" y="-172">=</tspan><tspan font-family="Cambria Math,Cambria Math_MSFontService,sans-serif" font-size="24" x="409.728" y="-172">𝐶𝑐</tspan><tspan font-family="Cambria Math,Cambria Math_MSFontService,sans-serif" font-size="18" x="434.475" y="-167">𝑂2</tspan><tspan font-size="24" x="457.801" y="-172">=</tspan><tspan font-family="Cambria Math,Cambria Math_MSFontService,sans-serif" font-size="24" x="844.305" y="-172">𝐶𝑎</tspan><tspan font-family="Cambria Math,Cambria Math_MSFontService,sans-serif" font-size="18" x="871.972" y="-167">𝑂2</tspan><tspan font-size="24" x="895.298" y="-172">=</tspan></text><path d="M636.399 654.45C634.361 661.879 632.953 669.502 618.073 669.5 603.194 669.498 590.556 638.587 590.5 611.417 590.444 584.247 603.345 552.509 616.728 552.5 630.111 552.491 632.941 559.389 636.5 566.344" stroke="#000000" stroke-width="1.33333" stroke-miterlimit="8" fill="#7F7F7F" fill-rule="evenodd" fill-opacity="0.54902"/><path d="M0 0 0.610814 4.58803" stroke="#000000" stroke-width="0.666667" stroke-miterlimit="8" fill="none" fill-rule="evenodd" transform="matrix(-1 0 0 1 618.111 669.5)"/><path d="M551.5 682.167C551.5 677.933 554.933 674.5 559.167 674.5L675.833 674.5C680.068 674.5 683.5 677.933 683.5 682.167L683.5 712.833C683.5 717.068 680.068 720.5 675.833 720.5L559.167 720.5C554.933 720.5 551.5 717.068 551.5 712.833Z" stroke="#000000" stroke-width="1.33333" stroke-miterlimit="8" fill="#FFFFFF" fill-rule="evenodd"/><text font-family="Calibri,Calibri_MSFontService,sans-serif" font-weight="400" font-size="24" transform="translate(563.008 704)">Qs =</text><path d="M0 70 0 42 67.3445 42 67.3445 0 94.5 0 94.5 42 161.845 42 161.845 28.0001 189 56 161.845 84 161.845 70 0 70Z" stroke="#000000" stroke-width="1.33333" stroke-miterlimit="8" fill="#FFFFFF" fill-rule="evenodd" transform="matrix(1 0 0 -1 763.5 522.5)"/><path d="M1041.5 316.334C1041.5 311.455 1045.45 307.5 1050.33 307.5L1182.67 307.5C1187.55 307.5 1191.5 311.455 1191.5 316.334L1191.5 351.667C1191.5 356.545 1187.55 360.5 1182.67 360.5L1050.33 360.5C1045.45 360.5 1041.5 356.545 1041.5 351.667Z" stroke="#000000" stroke-width="1.33333" stroke-miterlimit="8" fill="#FFFFFF" fill-rule="evenodd"/><text font-family="Cambria Math,Cambria Math_MSFontService,sans-serif" font-weight="400" font-size="24" transform="translate(1052.81 342)">𝑆<tspan font-size="24" x="13.1333" y="0">𝑎𝑂</tspan><tspan font-size="18" x="41.58" y="5">2</tspan><tspan font-family="Calibri,Calibri_MSFontService,sans-serif" font-size="24" x="52.74" y="0">=</tspan></text><path d="M0 0 0.000104987 74.0008" stroke="#000000" stroke-width="0.666667" stroke-miterlimit="8" fill="none" fill-rule="evenodd" transform="matrix(1 0 0 -1 1116.5 434.501)"/><text font-family="Calibri,Calibri_MSFontService,sans-serif" font-weight="400" font-size="24" transform="translate(769.806 472)">Qs/Qt =</text><path d="M196.5 316.334C196.5 311.455 200.455 307.5 205.334 307.5L349.667 307.5C354.545 307.5 358.5 311.455 358.5 316.334L358.5 351.667C358.5 356.545 354.545 360.5 349.667 360.5L205.334 360.5C200.455 360.5 196.5 356.545 196.5 351.667Z" stroke="#000000" stroke-width="1.33333" stroke-miterlimit="8" fill="#FFFFFF" fill-rule="evenodd"/><text font-family="Cambria Math,Cambria Math_MSFontService,sans-serif" font-weight="400" font-size="24" transform="translate(207.731 342)">𝑆𝑐𝑣<tspan font-size="24" x="37.3667" y="0">𝑂</tspan><tspan font-size="18" x="52.48" y="5">2</tspan><tspan font-family="Calibri,Calibri_MSFontService,sans-serif" font-size="24" x="63.64" y="0">=</tspan></text><path d="M0 0 0.000104987 74.0008" stroke="#000000" stroke-width="0.666667" stroke-miterlimit="8" fill="none" fill-rule="evenodd" transform="matrix(1 0 0 -1 277.5 434.501)"/></g></svg>